<svg version="1.2" xmlns="http://www.w3.org/2000/svg" viewBox="0 0 48 48" width="48" height="48"><style>.a{fill:#fbe62e}</style><path fill-rule="evenodd" class="a" d="m6.8 5.9c0 0.3 0 0.5 0 0.6 0 0 0 0.1 0 0.2q0.1 1 0.2 2 0.3-0.1 0.7-0.1c1.8-0.1 3.5 0 5.3 0.2 1.6 0.2 2.8 1.6 2.6 3.2-0.2 1.6-1.6 2.8-3.2 2.6-1.5-0.2-2.9-0.2-4.4-0.1q-0.3 0-0.8 0 0.2 7 0.3 14 0 0.1 0 0.2 0.2 0 0.4 0 0.2-0.1 0.3-0.1 0.1 0 0.1 0h0.1c0.1 0 0.2 0 0.3 0h11.7c-0.3-2.2-0.7-4.3-1.7-6.4-0.6-1.1-0.3-2.4 0.5-3.3q0.2-0.5 0.6-0.9c1.2-1.1 3-1.1 4.1 0 0.3 0.3 0.8 0.5 1.8 1 2.2 1 4.4 1.9 6.8 2.8q1.6 0.6 3.3 1.2 2.7 1.1 5.3 2.2 0.3 0.1 0.6 0.2c0.8 0.3 1.9 0.8 2.8 1.3 0.5 0.3 0.6 0.4 0.9 0.5 0.5 0.2 1.7 0.9 1.8 2.4 0.1 1.2-0.5 2-0.6 2.1-0.3 0.5-0.7 0.7-0.8 0.8q0 0 0 0c-0.3 0.2-0.6 0.3-0.8 0.4-0.4 0.2-0.8 0.4-0.9 0.4-2.2 1-4.4 2.1-6.6 3.4q-0.1 0-0.3 0.1c-4.8 2.7-9.1 5.1-12.7 8.2-1.2 1.1-3.1 0.9-4.1-0.3-0.9-1.1-1-2.6-0.2-3.7q0.1 0 0.1-0.1c0-0.5 0-1 0.1-1.4v-0.1c0-0.5 0.1-0.8 0.1-1.1q0-1.5 0-2.9 0-0.5 0-0.9h-11.8q0 0 0 0 0 0 0 0 0 0-0.1 0h-0.1q-0.2 0-0.4 0c-0.4 0-0.9 0-1.4 0-0.5 0.1-1.1 0-1.6 0-0.2 0-0.6-0.1-0.9-0.2-0.2 0-0.6-0.2-1-0.4-0.4-0.3-1.1-1-1.3-2.2q0-0.2 0-0.6c-0.1-0.7-0.3-1.7-0.3-2.6q0-7.7-0.3-15.4c0-2-0.1-3.9-0.3-5.8q0-0.4 0-0.6 0-0.1-0.1-0.2 0-0.1 0-0.2 0-0.1 0-0.2c-0.5-1.5 0.3-3.1 1.8-3.7 1.6-0.5 3.2 0.3 3.8 1.8 0.2 0.7 0.3 1.3 0.3 1.7zm27.3 25.9q0.2 0 0.3-0.1l0.1-0.1q0.1 0 0.2-0.1 1.4-0.7 2.8-1.5-1.9-0.8-3.8-1.5-1.4-0.6-3-1.1c-1.6-0.6-3.2-1.2-4.9-1.9 0.7 3.6 0.6 7.1 0.5 10.3q0 0.3 0 0.6c2.6-1.6 5.2-3.1 7.8-4.6zm-28.4-3.1q0 0 0 0 0 0 0 0z"/></svg>
