<svg width="4096" height="4096" viewBox="0 0 4096 4096" fill="none" xmlns="http://www.w3.org/2000/svg">
<path fill-rule="evenodd" clip-rule="evenodd" d="M552.06 361.686C506.599 231.314 364.059 162.479 233.686 207.94C104.487 252.991 35.7232 393.383 78.7395 522.79C78.9903 524.597 79.5135 528.872 79.9853 536.607C80.4059 543.503 80.6434 549.64 80.9816 558.377C81.123 562.03 81.2821 566.138 81.4794 570.946C82.0586 585.058 82.9516 604.169 85.0227 624.758C101.205 785.641 107.322 947.788 112.588 1118.56C126.122 1557.41 134.596 1995.34 139.822 2434.99C140.734 2511.68 151.552 2594.46 159.721 2656.97L159.722 2656.97C162.166 2675.67 164.373 2692.56 166.006 2706.93C177.616 2809.04 242.914 2866.57 274.892 2889C307.852 2912.11 339.303 2922.9 354.797 2927.68C387.779 2937.85 419.828 2941.71 439.135 2943.6C481.863 2947.78 531.275 2948.28 572.439 2947.89C615.601 2947.48 658.713 2945.95 691.719 2944.6C703.007 2944.14 713.721 2943.67 722.622 2943.28L724.425 2943.2C726.089 2943.13 727.682 2943.06 729.196 2943C730.628 2942.93 731.988 2942.88 733.271 2942.82C739.085 2942.57 742.648 2942.44 744.59 2942.36C745.458 2942.33 746.002 2942.31 746.279 2942.29C746.431 2942.29 746.503 2942.28 746.503 2942.28C746.503 2942.28 746.426 2942.27 746.282 2942.27H747.516H749.874H752.231H754.588H756.945H759.302H761.659H764.016H766.373H768.73H771.088H773.445H775.802H778.159H780.516H782.873H785.23H787.587H789.944H792.302H794.659H797.016H799.373H801.73H804.087H806.444H808.801H811.158H813.516H815.873H818.23H820.587H822.944H825.301H827.658H830.015H832.372H834.729H837.087H839.444H841.801H844.158H846.515H848.872H851.229H853.586H855.943H858.301H860.658H863.015H865.372H867.729H870.086H872.443H874.8H877.157H879.515H881.872H884.229H886.586H888.943H891.3H893.657H896.014H898.371H900.729H903.086H905.443H907.8H910.157H912.514H914.871H917.228H919.585H921.943H924.3H926.657H929.014H931.371H933.728H936.085H938.442H940.799H943.157H945.514H947.871H950.228H952.585H954.942H957.299H959.656H962.013H964.371H966.728H969.085H971.442H973.799H976.156H978.513H980.87H983.227H985.585H987.942H990.299H992.656H995.013H997.37H999.727H1002.08H1004.44H1006.8H1009.16H1011.51H1013.87H1016.23H1018.58H1020.94H1023.3H1025.66H1028.01H1030.37H1032.73H1035.08H1037.44H1039.8H1042.16H1044.51H1046.87H1049.23H1051.58H1053.94H1056.3H1058.65H1061.01H1063.37H1065.73H1068.08H1070.44H1072.8H1075.15H1077.51H1079.87H1082.23H1084.58H1086.94H1089.3H1091.65H1094.01H1096.37H1098.73H1101.08H1103.44H1105.8H1108.15H1110.51H1112.87H1115.23H1117.58H1119.94H1122.3H1124.65H1127.01H1129.37H1131.73H1134.08H1136.44H1138.8H1141.15H1143.51H1145.87H1148.23H1150.58H1152.94H1155.3H1157.65H1160.01H1162.37H1164.72H1167.08H1169.44H1171.8H1174.15H1176.51H1178.87H1181.22H1183.58H1185.94H1188.3H1190.65H1193.01H1195.37H1197.72H1200.08H1202.44H1204.8H1207.15H1209.51H1211.87H1214.22H1216.58H1218.94H1221.3H1223.65H1226.01H1228.37H1230.72H1233.08H1235.44H1237.8H1240.15H1242.51H1244.87H1247.22H1249.58H1251.94H1254.3H1256.65H1259.01H1261.37H1263.72H1266.08H1268.44H1270.79H1273.15H1275.51H1277.87H1280.22H1282.58H1284.94H1287.29H1289.65H1292.01H1294.37H1296.72H1299.08H1301.44H1303.79H1306.15H1308.51H1310.87H1313.22H1315.58H1317.94H1320.29H1322.65H1325.01H1327.37H1329.72H1332.08H1334.44H1336.79H1339.15H1341.51H1343.87H1346.22H1348.58H1350.94H1353.29H1355.65H1358.01H1360.37H1362.72H1365.08H1367.44H1369.79H1372.15H1374.51H1376.86H1379.22H1381.58H1383.94H1386.29H1388.65H1391.01H1393.36H1395.72H1398.08H1400.44H1402.79H1405.15H1407.51H1409.86H1412.22H1414.58H1416.94H1419.29H1421.65H1424.01H1426.36H1428.72H1431.08H1433.44H1435.79H1438.15H1440.51H1442.86H1445.22H1447.58H1449.94H1452.29H1454.65H1457.01H1459.36H1461.72H1464.08H1466.44H1468.79H1471.15H1473.51H1475.86H1478.22H1480.58H1482.93H1485.29H1487.65H1490.01H1492.36H1494.72H1497.08H1499.43H1501.79H1504.15H1506.51H1508.86H1511.22H1513.58H1515.93H1518.29H1520.65H1523.01H1525.36H1527.72H1530.08H1532.43H1534.79H1537.15H1539.51H1541.86H1544.22H1546.58H1548.93H1551.29H1553.65H1556.01H1558.36H1560.72H1563.08H1565.43H1567.79H1570.15H1572.51H1574.86H1577.22H1579.58H1581.93H1584.29H1586.65H1589H1591.36H1593.72H1596.08H1598.43H1600.79H1603.15H1605.5H1607.86H1610.22H1612.58H1614.93H1617.29H1619.65H1622H1624.36H1626.72H1629.08H1631.43H1633.79H1636.15H1638.5H1640.86H1643.22H1645.58H1647.93H1650.29H1652.65H1655H1657.36H1659.72H1662.08H1664.43H1666.79H1669.15H1671.5H1673.86H1676.22H1678.57H1680.93H1683.29H1685.65H1688H1690.36H1692.72H1695.07H1697.43H1699.79H1702.15H1704.5H1706.86H1709.22H1711.57H1713.93H1716.29H1718.65H1721H1723.36H1725.72H1728.07H1730.43H1732.79H1735.15H1737.5H1739.86H1742.22H1744.57H1746.93H1749.2C1748.87 2967.74 1748.49 2993.41 1748.12 3019.28C1746.94 3100.53 1745.74 3183.83 1745.74 3269.39C1745.74 3295.21 1743.33 3322.81 1739.47 3363.75L1739.08 3367.9C1735.96 3400.94 1731.9 3444.04 1731.13 3489.47C1729.71 3493.4 1728.39 3497.38 1727.17 3501.38C1658.49 3593.17 1660.12 3723.44 1737.95 3813.98C1827.96 3918.68 1985.8 3930.58 2090.5 3840.57C2399.56 3574.87 2766.84 3370.43 3173.26 3144.21L3173.26 3144.21L3174.75 3143.38C3184.15 3138.15 3193.58 3132.9 3203.02 3127.64C3391.18 3022.88 3571.89 2925.01 3762.76 2843.43C3768.63 2840.92 3806.33 2824.73 3841.82 2807.21C3857.36 2799.54 3883.16 2786.46 3906.17 2771.26C3906.37 2771.13 3906.6 2770.97 3906.88 2770.79L3906.94 2770.75C3914.1 2766.07 3947.08 2744.51 3975.08 2708.55C3985.7 2694.92 4036.84 2628.87 4028 2529.93C4016.39 2400.09 3920.03 2338.98 3873.48 2319.58C3852.48 2310.83 3837.71 2301.99 3798.43 2278.29C3722 2232.18 3624.75 2193.5 3557.23 2166.65L3557.21 2166.64L3557.2 2166.64C3539 2159.4 3522.96 2153.02 3510.07 2147.59C3359.24 2083.99 3207.09 2023.62 3055.9 1964.76C2959.4 1927.19 2865.42 1892.28 2773.58 1858.15L2773.57 1858.15C2569.94 1782.49 2376.81 1710.73 2190 1622.65C2105.75 1582.93 2063.84 1558.44 2043.42 1537.87C1946.15 1439.88 1787.86 1439.3 1689.87 1536.58C1666.39 1559.89 1648.51 1586.7 1636.22 1615.34C1567.69 1688.77 1547.62 1799.61 1594.18 1895.34C1679 2069.76 1718.91 2250.74 1736.84 2442.27H1735.15H1732.79H1730.43H1728.07H1725.72H1723.36H1721H1718.65H1716.29H1713.93H1711.57H1709.22H1706.86H1704.5H1702.15H1699.79H1697.43H1695.07H1692.72H1690.36H1688H1685.65H1683.29H1680.93H1678.57H1676.22H1673.86H1671.5H1669.15H1666.79H1664.43H1662.08H1659.72H1657.36H1655H1652.65H1650.29H1647.93H1645.58H1643.22H1640.86H1638.5H1636.15H1633.79H1631.43H1629.08H1626.72H1624.36H1622H1619.65H1617.29H1614.93H1612.58H1610.22H1607.86H1605.5H1603.15H1600.79H1598.43H1596.08H1593.72H1591.36H1589H1586.65H1584.29H1581.93H1579.58H1577.22H1574.86H1572.51H1570.15H1567.79H1565.43H1563.08H1560.72H1558.36H1556.01H1553.65H1551.29H1548.93H1546.58H1544.22H1541.86H1539.51H1537.15H1534.79H1532.43H1530.08H1527.72H1525.36H1523.01H1520.65H1518.29H1515.93H1513.58H1511.22H1508.86H1506.51H1504.15H1501.79H1499.43H1497.08H1494.72H1492.36H1490.01H1487.65H1485.29H1482.93H1480.58H1478.22H1475.86H1473.51H1471.15H1468.79H1466.44H1464.08H1461.72H1459.36H1457.01H1454.65H1452.29H1449.94H1447.58H1445.22H1442.86H1440.51H1438.15H1435.79H1433.44H1431.08H1428.72H1426.36H1424.01H1421.65H1419.29H1416.94H1414.58H1412.22H1409.86H1407.51H1405.15H1402.79H1400.44H1398.08H1395.72H1393.36H1391.01H1388.65H1386.29H1383.94H1381.58H1379.22H1376.86H1374.51H1372.15H1369.79H1367.44H1365.08H1362.72H1360.37H1358.01H1355.65H1353.29H1350.94H1348.58H1346.22H1343.87H1341.51H1339.15H1336.79H1334.44H1332.08H1329.72H1327.37H1325.01H1322.65H1320.29H1317.94H1315.58H1313.22H1310.87H1308.51H1306.15H1303.79H1301.44H1299.08H1296.72H1294.37H1292.01H1289.65H1287.29H1284.94H1282.58H1280.22H1277.87H1275.51H1273.15H1270.79H1268.44H1266.08H1263.72H1261.37H1259.01H1256.65H1254.3H1251.94H1249.58H1247.22H1244.87H1242.51H1240.15H1237.8H1235.44H1233.08H1230.72H1228.37H1226.01H1223.65H1221.3H1218.94H1216.58H1214.22H1211.87H1209.51H1207.15H1204.8H1202.44H1200.08H1197.72H1195.37H1193.01H1190.65H1188.3H1185.94H1183.58H1181.22H1178.87H1176.51H1174.15H1171.8H1169.44H1167.08H1164.72H1162.37H1160.01H1157.65H1155.3H1152.94H1150.58H1148.23H1145.87H1143.51H1141.15H1138.8H1136.44H1134.08H1131.73H1129.37H1127.01H1124.65H1122.3H1119.94H1117.58H1115.23H1112.87H1110.51H1108.15H1105.8H1103.44H1101.08H1098.73H1096.37H1094.01H1091.65H1089.3H1086.94H1084.58H1082.23H1079.87H1077.51H1075.15H1072.8H1070.44H1068.08H1065.73H1063.37H1061.01H1058.65H1056.3H1053.94H1051.58H1049.23H1046.87H1044.51H1042.16H1039.8H1037.44H1035.08H1032.73H1030.37H1028.01H1025.66H1023.3H1020.94H1018.58H1016.23H1013.87H1011.51H1009.16H1006.8H1004.44H1002.08H999.727H997.37H995.013H992.656H990.299H987.942H985.585H983.227H980.87H978.513H976.156H973.799H971.442H969.085H966.728H964.371H962.013H959.656H957.299H954.942H952.585H950.228H947.871H945.514H943.157H940.799H938.442H936.085H933.728H931.371H929.014H926.657H924.3H921.943H919.585H917.228H914.871H912.514H910.157H907.8H905.443H903.086H900.729H898.371H896.014H893.657H891.3H888.943H886.586H884.229H881.872H879.515H877.157H874.8H872.443H870.086H867.729H865.372H863.015H860.658H858.301H855.943H853.586H851.229H848.872H846.515H844.158H841.801H839.444H837.087H834.729H832.372H830.015H827.658H825.301H822.944H820.587H818.23H815.873H813.516H811.158H808.801H806.444H804.087H801.73H799.373H797.016H794.659H792.302H789.944H787.587H785.23H782.873H780.516H778.159H775.802H773.445H771.088H768.73H766.373H764.016H761.659H759.302H756.945H754.588H752.231H749.874H747.516H745.159C735.266 2442.27 721.665 2442.86 713.201 2443.22L711.892 2443.28C708.04 2443.44 704.052 2443.62 699.877 2443.8L699.716 2443.81C691.171 2444.18 681.837 2444.59 671.26 2445.02C661.412 2445.42 650.986 2445.83 640.216 2446.2C640.001 2440.55 639.856 2434.85 639.787 2429.04C635.071 2032.4 627.721 1636.5 616.4 1239.61C641.629 1236.47 662.057 1234.39 681.481 1233.59C810.601 1228.27 933.018 1230.73 1053.97 1244.87C1191.11 1260.9 1315.27 1162.73 1331.31 1025.59C1347.34 888.456 1249.17 764.287 1112.03 748.253C958.857 730.345 809.285 727.898 660.882 734.017C638.404 734.944 616.619 736.666 596.132 738.719C592.478 684.349 588.037 629.64 582.512 574.718C581.384 563.502 581.264 558.677 581.065 550.673V550.671V550.67C580.861 542.513 580.576 531.054 579.058 506.165C576.962 471.809 572.053 419.022 552.06 361.686ZM2911.98 2717.4C2690.9 2840.39 2465.02 2966.05 2247.58 3105.97C2247.88 3089.6 2248.19 3073.09 2248.51 3056.43L2248.53 3055.47V3055.46V3055.44C2253.69 2785.83 2259.55 2480.09 2203.15 2174.17C2342.45 2231.48 2484.91 2284.44 2622.02 2335.42L2622.02 2335.42L2622.04 2335.42L2622.09 2335.44C2709.11 2367.79 2793.98 2399.35 2874.5 2430.7C2984.16 2473.38 3092.61 2516.22 3199.72 2560.09C3117.59 2603.36 3037.73 2647.4 2959.8 2690.79C2955.24 2693.32 2950.69 2695.86 2946.13 2698.4L2936 2704.03C2928 2708.48 2920 2712.94 2911.99 2717.39L2911.98 2717.4ZM483.74 2445.48C483.756 2445.48 484.204 2445.53 485.034 2445.67C484.139 2445.56 483.724 2445.49 483.74 2445.48Z" fill="black"/>
</svg>
